<?xml version="1.0" standalone="no"?><!DOCTYPE svg PUBLIC "-//W3C//DTD SVG 1.1//EN" "http://www.w3.org/Graphics/SVG/1.1/DTD/svg11.dtd"><svg t="1596953720857" class="icon" viewBox="0 0 1024 1024" version="1.1" xmlns="http://www.w3.org/2000/svg" p-id="8692" xmlns:xlink="http://www.w3.org/1999/xlink" width="200" height="200"><defs><style type="text/css"></style></defs><path d="M381.468365 806.062387 381.468365 650.676409l543.881899 0 0 155.387L381.468365 806.063409zM381.468365 417.595904l543.881899 0 0 155.387L381.468365 572.982904 381.468365 417.59591zM381.468365 184.509235l543.881899 0L925.350264 339.901387 381.468365 339.901387 381.468365 184.509271zM148.376269 650.676429l155.393366 0 0 155.387L148.376268 806.063428 148.376268 650.676409zM148.376269 417.595904l155.393366 0 0 155.387L148.376268 572.982904 148.376268 417.59591zM148.376269 184.509235l155.393366 0L303.769635 339.901387 148.376268 339.901387 148.376268 184.509271z" p-id="8693"></path></svg>